<?xml version="1.0" encoding="UTF-8"?>
<svg version="1.1" viewBox="0 0 2048 766" width="1280" height="1280" xmlns="http://www.w3.org/2000/svg">
<path transform="translate(0)" d="m0 0h2048v766h-2048z" fill="#FEFEFE"/>
<path transform="translate(1008,217)" d="m0 0 9 1 6 4 6 7 3 8 1 165 2 20 4 17 7 16 7 9 7 6 11 5 11 3 8 1h9l14-2 14-5 10-6 7-8 8-16 4-15 2-12 1-13 1-163 2-9 7-8 7-3h12l8 5 4 5 3 7v173l-3 24-6 23-8 17-10 14-11 11-13 9-16 7-19 5-6 1h-28l-17-3-17-5-16-8-9-7-7-6-10-14-8-16-6-18-4-20-1-10-1-29v-136l1-14 4-8 7-6z" fill="#272426"/>
<path transform="translate(549,217)" d="m0 0 9 1 8 5 5 7 2 6 1 159 2 25 5 21 8 16 6 8 5 4 12 6 11 3 7 1h10l14-2 15-5 10-7 6-7 8-15 5-19 2-15 1-26 1-150 4-8 7-6 7-2 10 1 6 3 6 7 2 5 1 14v141l-1 24-3 22-5 19-6 15-10 16-10 11-12 9-15 8-19 6-11 2h-29l-17-3-16-5-12-5-12-8-12-12-9-14-7-15-6-20-3-19-1-13v-171l5-10 8-6z" fill="#272426"/>
<path transform="translate(1265,218)" d="m0 0h42l23 2 19 4 15 5 13 7 12 11 6 8 6 12 5 17 2 17-1 17-4 17-4 9-7 12-11 12-9 7-17 10-4 4 1 8 10 19 8 13 28 48 5 12v8l-3 8-7 7-8 3h-7l-7-2-7-6-8-13-12-21-15-26-32-56-7-14-1-3v-8l3-6 6-5 24-4 15-5 12-7 8-11 3-7 2-10v-17l-3-12-6-9-1-3-4-2-10-6-15-4-7-1-53-1-9-3-6-7-2-5v-9l5-8 5-4z" fill="#272426"/>
<path transform="translate(1463,347)" d="m0 0h139l8 3 6 9 1 3v9l-4 8-5 4-10 3-100 1-7 3-3 7v64l1 7 4 6 5 1 124 1 7 3 5 6 2 7v7l-3 9-7 6-12 2h-151l-9-3-7-8-2-6v-137l3-7 7-6z" fill="#272426"/>
<path transform="translate(341,347)" d="m0 0h117l9 3 6 7 1 3v13l-6 8-8 4-4 1-81 1-8 2-1 4-1 98-2 11-4 6-8 5-3 1h-11l-10-5-4-5-2-5-1-13 1-125 3-6 7-6z" fill="#272426"/>
<path transform="translate(862,303)" d="m0 0h7l9 3 7 8 2 5 1 16-1 163-3 8-7 7-7 3h-7l-10-4-6-7-2-5-1-11v-126l1-45 5-8 6-5z" fill="#272426"/>
<path transform="translate(1458,219)" d="m0 0h165l6 3 5 6 2 6-1 10-5 8-6 4-13 1h-150l-7-3-7-8-2-5v-9l4-7 5-4z" fill="#272426"/>
<path transform="translate(831,217)" d="m0 0h104l9 2 7 8 2 5v10l-4 8-9 6-8 1h-135l-9-3-5-5-4-7v-10l4-8 7-6z" fill="#272426"/>
<path transform="translate(378,217)" d="m0 0h99l8 2 6 5 4 10-1 9-3 6-7 6-11 2h-134l-8-2-6-5-4-8v-11l4-7 5-5 3-1z" fill="#272426"/>
</svg>
